<svg width="142" height="180" viewBox="0 0 142 180" fill="none" xmlns="http://www.w3.org/2000/svg">
<path d="M110.177 80.235C93.995 87.786 75.302 88.704 57.788 86.922C43.046 85.446 28.529 80.991 17.81 70.569C16.469 69.264 14.291 69.399 13.103 70.848C3.02303 83.142 -0.828964 101.187 1.89804 116.703C3.91404 128.205 10.277 135.081 18.692 142.524C20.258 143.901 23.327 146.124 21.725 148.581C20.582 150.327 17.351 150.768 15.497 151.263C12.608 152.037 9.57504 152.163 6.69504 152.991C2.91504 154.062 1.83503 157.338 1.48403 160.839C1.16903 164.034 1.01603 167.229 1.03403 170.442C1.05203 172.647 0.59304 175.968 2.14104 177.786C4.56204 180.639 9.46704 178.605 12.473 178.029C12.491 178.029 12.527 178.02 12.545 178.011C24.587 175.707 36.584 173.214 48.509 170.406C53.45 169.245 58.436 168.318 63.431 167.427C68.255 166.563 74.285 165.123 79.01 165.879C90.341 167.616 101.456 171.261 112.688 173.88C117.89 175.104 123.11 176.256 128.33 177.372C130.868 177.93 137.96 181.089 138.068 176.598C138.221 170.442 138.554 164.349 138.194 158.193C138.131 156.906 137.996 155.547 137.213 154.521C134.063 150.372 125.522 151.515 121.175 148.833C120.545 148.446 119.879 147.87 119.942 147.132C119.987 146.646 120.356 146.259 120.698 145.917C125.018 141.579 129.5 137.421 133.037 132.39C145.997 113.841 142.226 88.254 128.726 70.929C127.538 69.408 125.288 69.237 123.92 70.596C119.906 74.556 115.28 77.859 110.186 80.226L110.177 80.235Z" fill="#8DA9C4"/>
<path d="M58.328 64.269C57.338 62.568 56.591 60.714 56.132 58.797C53.972 49.896 57.068 40.536 60.767 32.202C63.089 26.964 65.708 21.834 67.715 16.488C69.02 13.005 72.764 4.239 70.874 0.720001C75.725 9.738 79.802 19.143 83.069 28.809C86.282 38.313 89.423 48.276 87.299 58.455C86.489 62.343 84.626 66.168 81.476 68.868C73.817 75.429 62.765 71.82 58.337 64.26L58.328 64.269Z" fill="#274C77"/>
</svg>
