<svg width="250" height="90" viewBox="0 0 250 90" fill="none" xmlns="http://www.w3.org/2000/svg">
<path d="M248.849 67.23C248.849 67.23 248.849 67.212 248.849 67.203C248.048 62.991 247.175 58.788 246.212 54.612C245.726 52.515 245.267 50.409 244.907 48.285C244.592 46.404 243.962 43.956 244.268 42.057C244.925 37.764 246.302 33.561 247.292 29.313C247.751 27.342 248.192 25.371 248.615 23.391C248.822 22.437 250.019 19.746 248.318 19.71C245.987 19.656 243.683 19.521 241.352 19.656C240.866 19.683 240.353 19.728 239.966 20.025C239.012 20.781 238.868 23.211 238.526 24.327C238.355 24.858 237.887 26.766 237.059 26.523C236.807 26.451 236.618 26.235 236.429 26.046C234.944 24.426 233.387 22.869 231.587 21.609C221.984 14.895 207.395 20.043 202.643 30.258C199.781 36.378 199.439 43.452 200.114 50.076C200.519 54.117 201.464 58.167 203.552 61.677C206.414 66.51 211.715 69.885 217.16 71.055C222.515 72.207 229.391 71.658 233.27 67.356C233.999 66.537 234.701 65.7 235.421 64.872C235.943 64.278 236.78 63.117 237.716 63.729C238.373 64.161 238.544 65.385 238.733 66.087C239.021 67.176 239.075 68.328 239.381 69.417C239.786 70.848 241.028 71.253 242.351 71.388C243.557 71.505 244.772 71.568 245.978 71.559C246.815 71.559 248.066 71.73 248.759 71.145C249.839 70.227 249.065 68.373 248.849 67.239V67.23ZM221.156 63.324C219.734 63.144 218.312 62.658 216.971 61.839C216.17 61.353 215.459 60.651 214.865 59.913C212.048 56.403 210.662 52.38 210.428 47.889C210.275 45.036 210.383 42.21 210.77 39.402C211.148 36.666 212.282 34.155 213.794 31.905C214.631 30.663 215.603 29.628 216.683 28.836C216.683 28.836 216.683 28.836 216.692 28.836C217.781 28.098 219.005 27.558 220.346 27.297C220.751 27.216 221.156 27.153 221.561 27.117C221.903 27.108 222.245 27.117 222.587 27.144C224.216 27.144 225.683 27.387 226.988 27.864C226.988 27.864 226.997 27.864 227.006 27.864C229.247 28.809 231.101 30.537 232.28 33.012C234.341 37.305 234.89 41.886 234.647 46.593C234.521 49.212 234.08 51.75 233.198 54.198C231.317 59.4 227.402 63.909 221.363 63.36C221.291 63.36 221.228 63.351 221.156 63.342C221.156 63.342 221.138 63.342 221.129 63.342L221.156 63.324ZM221.57 27.108C221.912 27.099 222.254 27.108 222.596 27.135C224.225 27.135 225.692 27.378 226.997 27.855C225.359 27.171 223.505 26.91 221.561 27.108H221.57ZM214.865 59.913C212.048 56.403 210.662 52.38 210.428 47.889C210.275 45.036 210.383 42.21 210.77 39.402C211.148 36.666 212.282 34.155 213.794 31.905C214.631 30.663 215.603 29.628 216.683 28.836C213.29 31.14 211.148 35.397 210.608 39.366C209.474 47.61 210.32 62.136 221.147 63.333C219.725 63.153 218.303 62.667 216.962 61.848C216.161 61.362 215.45 60.66 214.856 59.922L214.865 59.913Z" fill="#274C77"/>
<path d="M190.115 45.054C190.151 52.821 190.178 60.597 190.196 68.364C190.196 68.823 190.196 69.3 189.998 69.705C189.197 71.298 183.59 70.533 182.159 70.299C180.161 69.975 180.674 68.076 180.665 66.258V65.457C180.665 63.702 180.665 61.956 180.647 60.201V60.165C180.629 55.134 180.611 50.094 180.584 45.054C180.611 40.023 180.629 34.983 180.647 29.943V29.907C180.647 28.152 180.665 26.406 180.665 24.651V23.85C180.665 22.032 180.161 20.142 182.159 19.809C183.59 19.575 189.197 18.819 189.998 20.403C190.196 20.808 190.196 21.285 190.196 21.744C190.169 29.511 190.142 37.287 190.115 45.054Z" fill="#274C77"/>
<path d="M63.8362 45.054C63.8722 52.821 63.8992 60.597 63.9172 68.364C63.9172 68.823 63.9172 69.3 63.7192 69.705C62.9182 71.298 57.3112 70.533 55.8802 70.299C53.8822 69.975 54.3952 68.076 54.3862 66.258V65.457C54.3862 63.702 54.3862 61.956 54.3682 60.201V60.165C54.3502 55.134 54.3322 50.094 54.3052 45.054C54.3322 40.023 54.3502 34.983 54.3682 29.943V29.907C54.3682 28.152 54.3862 26.406 54.3862 24.651V23.85C54.3862 22.032 53.8822 20.142 55.8802 19.809C57.3112 19.575 62.9182 18.819 63.7192 20.403C63.9172 20.808 63.9172 21.285 63.9172 21.744C63.8902 29.511 63.8632 37.287 63.8362 45.054Z" fill="#274C77"/>
<path d="M173.915 21.096C172.817 24.3 171.719 27.513 170.558 30.69C169.163 34.515 167.705 38.313 166.265 42.12C164.114 47.799 161.954 53.469 159.803 59.157C158.147 63.531 156.194 67.887 155.483 72.54C155.033 75.447 154.88 78.399 154.907 81.342C154.925 83.403 155.087 85.455 155.195 87.516C155.222 88.074 155.249 88.65 155.015 89.163C154.592 90.126 153.584 90 152.711 90H148.373C147.5 90 146.492 90.135 146.069 89.163C145.844 88.65 145.871 88.074 145.889 87.516C145.997 85.455 146.159 83.403 146.177 81.342C146.204 78.399 146.051 75.447 145.601 72.54C144.89 67.887 142.937 63.531 141.281 59.157C139.139 53.469 136.979 47.799 134.819 42.12C133.37 38.322 131.921 34.515 130.526 30.69C129.365 27.513 128.276 24.3 127.169 21.096C126.836 20.115 126.98 19.863 127.961 19.818C130.283 19.728 132.614 19.674 134.936 19.674C136.601 19.674 136.898 19.926 137.447 21.501C139.031 25.983 140.561 30.474 142.145 34.947C143.648 39.159 144.917 43.506 146.663 47.628C147.383 49.356 148.112 52.092 150.281 52.452C150.371 52.47 150.47 52.479 150.551 52.479C150.632 52.479 150.731 52.479 150.821 52.452C152.99 52.092 153.71 49.356 154.439 47.628C156.176 43.506 157.454 39.159 158.957 34.947C160.55 30.474 162.08 25.983 163.655 21.501C164.213 19.926 164.501 19.665 166.166 19.674C168.488 19.674 170.819 19.728 173.141 19.818C174.122 19.863 174.266 20.115 173.933 21.096H173.915Z" fill="#274C77"/>
<path d="M111.302 63.603C111.302 63.603 111.257 63.603 111.239 63.603C111.32 63.621 111.401 63.639 111.473 63.675C111.509 63.684 111.536 63.702 111.572 63.72C111.491 63.648 111.401 63.612 111.302 63.603Z" fill="#274C77"/>
<path d="M122.714 67.23C122.714 67.23 122.714 67.212 122.714 67.203C121.913 62.991 121.04 58.788 120.077 54.612C119.591 52.515 119.132 50.409 118.772 48.285C118.457 46.404 117.827 43.956 118.133 42.057C118.79 37.764 120.167 33.561 121.157 29.313C121.616 27.342 122.057 25.371 122.48 23.391C122.687 22.437 123.884 19.746 122.183 19.71C119.852 19.656 117.548 19.521 115.217 19.656C114.731 19.683 114.218 19.728 113.831 20.025C112.868 20.781 112.733 23.211 112.391 24.327C112.22 24.858 111.752 26.766 110.924 26.523C110.672 26.451 110.483 26.235 110.294 26.046C108.809 24.426 107.252 22.869 105.452 21.609C95.849 14.895 81.26 20.043 76.508 30.258C73.646 36.378 73.304 43.452 73.979 50.076C74.384 54.117 75.329 58.167 77.417 61.677C80.288 66.51 85.58 69.885 91.025 71.055C96.38 72.207 103.265 71.658 107.135 67.356C107.864 66.537 108.566 65.7 109.286 64.872C109.754 64.341 110.492 63.333 111.311 63.594C111.365 63.612 111.428 63.639 111.482 63.666C111.509 63.684 111.545 63.702 111.572 63.72C112.238 64.152 112.4 65.376 112.589 66.078C112.886 67.167 112.931 68.319 113.237 69.408C113.642 70.839 114.884 71.244 116.207 71.379C117.413 71.496 118.628 71.559 119.834 71.55C120.671 71.55 121.922 71.721 122.615 71.136C123.695 70.218 122.921 68.364 122.705 67.23H122.714ZM108.521 46.584C108.395 49.203 107.954 51.741 107.072 54.189C107.045 54.27 107.018 54.342 106.991 54.423C105.569 58.221 103.058 61.605 99.413 62.874C98.153 63.315 96.767 63.495 95.237 63.351C89.342 62.811 86.345 58.383 85.013 53.109C83.87 48.618 83.933 43.524 84.428 39.681C84.437 39.573 84.455 39.474 84.473 39.366C84.5 39.195 84.527 39.024 84.554 38.853C85.013 36.144 86.201 33.354 88.01 31.167C88.01 31.167 88.01 31.158 88.028 31.149C89.63 29.223 91.718 27.774 94.211 27.288C94.598 27.216 94.985 27.153 95.363 27.117C96.443 27 97.487 27.027 98.495 27.189C98.495 27.189 98.495 27.189 98.504 27.189C101.726 27.711 104.462 29.637 106.064 32.823C106.091 32.886 106.127 32.949 106.154 33.012C108.215 37.305 108.764 41.886 108.521 46.593V46.584Z" fill="#274C77"/>
<path d="M47.6001 21.096C46.5021 24.3 45.4041 27.513 44.2431 30.69C42.8481 34.515 41.3901 38.313 39.9501 42.12C37.7991 47.799 35.6391 53.469 33.4881 59.157C31.8321 63.531 29.8791 67.887 29.1681 72.54C28.7181 75.447 28.5651 78.399 28.5921 81.342C28.6101 83.403 28.7721 85.455 28.8801 87.516C28.9071 88.074 28.9341 88.65 28.7001 89.163C28.2771 90.126 27.2691 90 26.3961 90H22.0581C21.1851 90 20.1771 90.135 19.7541 89.163C19.5291 88.65 19.5561 88.074 19.5741 87.516C19.6821 85.455 19.8441 83.403 19.8621 81.342C19.8891 78.399 19.7361 75.447 19.2861 72.54C18.5751 67.887 16.6221 63.531 14.9661 59.157C12.8241 53.469 10.6641 47.799 8.50408 42.12C7.05508 38.322 5.60608 34.515 4.21108 30.69C3.05008 27.513 1.96108 24.3 0.854081 21.096C0.521081 20.115 0.665085 19.863 1.64609 19.818C3.96809 19.728 6.29909 19.674 8.62109 19.674C10.2861 19.674 10.5831 19.926 11.1321 21.501C12.7161 25.983 14.2461 30.474 15.8301 34.947C17.3331 39.159 18.6021 43.506 20.3481 47.628C21.0681 49.356 21.7971 52.092 23.9661 52.452C24.0561 52.47 24.1551 52.479 24.2361 52.479C24.3171 52.479 24.4161 52.479 24.5061 52.452C26.6751 52.092 27.3951 49.356 28.1241 47.628C29.8611 43.506 31.1391 39.159 32.6421 34.947C34.2351 30.474 35.7651 25.983 37.3401 21.501C37.8981 19.926 38.1861 19.665 39.8511 19.674C42.1731 19.674 44.5041 19.728 46.8261 19.818C47.8071 19.863 47.9511 20.115 47.6181 21.096H47.6001Z" fill="#274C77"/>
<path d="M235.736 1.24197C235.88 1.54797 235.781 1.91696 235.655 2.23196C235.034 3.81596 233.783 4.95897 232.721 6.24597C231.578 7.63197 230.372 8.95496 229.166 10.287C227.447 12.186 225.863 13.689 223.244 14.121C222.218 14.292 218.519 14.922 218.546 13.077C218.564 11.601 220.04 9.61197 220.661 8.29797C221.354 6.81297 222.056 5.32797 222.749 3.84297C223.28 2.70897 223.73 1.28697 224.864 0.602966C225.593 0.152966 226.493 0.107973 227.357 0.0899735C229.67 0.0449735 232.991 -0.297029 235.142 0.719971C235.385 0.836971 235.628 0.989964 235.736 1.23296V1.24197Z" fill="#274C77"/>
<path d="M111.239 63.603C111.239 63.603 111.176 63.603 111.14 63.621V63.594C111.14 63.594 111.203 63.594 111.239 63.594V63.603Z" fill="#274C77"/>
<path d="M111.302 63.603C111.302 63.603 111.257 63.603 111.239 63.603C111.32 63.621 111.401 63.639 111.473 63.675C111.509 63.684 111.536 63.702 111.572 63.72C111.491 63.648 111.401 63.612 111.302 63.603Z" fill="#5828CE"/>
<path d="M111.239 63.603C111.239 63.603 111.176 63.603 111.14 63.621V63.594C111.14 63.594 111.203 63.594 111.239 63.594V63.603Z" fill="#5828CE"/>
</svg>
